<svg width="58" height="58" viewBox="0 0 58 58" fill="none" xmlns="http://www.w3.org/2000/svg">
<circle cx="29" cy="29" r="29" fill="#F7DF1E"/>
<path d="M13 13H45V45H13V13ZM42.3787 37.368C42.1453 35.908 41.1947 34.6813 38.3747 33.5373C37.3933 33.0773 36.3027 32.7573 35.9787 32.0173C35.8573 31.5773 35.8387 31.3373 35.9173 31.0773C36.1173 30.216 37.1373 29.9573 37.9373 30.1973C38.4573 30.3573 38.9373 30.7573 39.2387 31.3973C40.6173 30.496 40.6173 30.496 41.5787 29.8973C41.2187 29.3373 41.04 29.096 40.7973 28.8573C39.9573 27.9173 38.8387 27.4373 37.0187 27.4787L36.0787 27.5973C35.1773 27.8173 34.3187 28.2973 33.7987 28.9373C32.2787 30.6587 32.7173 33.6587 34.5573 34.8987C36.3773 36.2587 39.0387 36.5573 39.3787 37.8387C39.6987 39.3987 38.2187 39.8987 36.7573 39.7187C35.676 39.4787 35.0773 38.9373 34.4173 37.9373L31.9773 39.3387C32.2573 39.9787 32.5773 40.2573 33.0573 40.8173C35.3773 43.1587 41.1773 43.0387 42.2187 39.4787C42.2573 39.3587 42.5387 38.5387 42.3173 37.2787L42.3787 37.368ZM30.4013 27.708H27.404C27.404 30.292 27.392 32.86 27.392 35.448C27.392 37.0907 27.476 38.5987 27.208 39.0627C26.768 39.9813 25.6347 39.864 25.12 39.7027C24.592 39.4413 24.324 39.0813 24.0133 38.5627C23.9293 38.4227 23.8667 38.3013 23.844 38.3013L21.4107 39.8013C21.8173 40.6413 22.4107 41.364 23.176 41.824C24.316 42.504 25.848 42.724 27.452 42.364C28.496 42.0627 29.396 41.4427 29.8667 40.4827C30.5467 39.2427 30.4027 37.7227 30.396 36.0213C30.412 33.2827 30.396 30.5427 30.396 27.7827L30.4013 27.708Z" fill="white"/>
</svg>
