<svg width="58" height="58" viewBox="0 0 58 58" fill="none" xmlns="http://www.w3.org/2000/svg">
<circle cx="29" cy="29" r="29" fill="#61DAFB"/>
<path d="M31.9733 29.0053C31.9733 29.7958 31.6594 30.5539 31.1006 31.1129C30.5418 31.672 29.7838 31.9863 28.9933 31.9866C28.2026 31.9866 27.4443 31.6725 26.8852 31.1134C26.3261 30.5543 26.012 29.796 26.012 29.0053C26.012 28.2148 26.3259 27.4567 26.8847 26.8976C27.4436 26.3386 28.2015 26.0243 28.992 26.024C29.7827 26.024 30.541 26.3381 31.1001 26.8972C31.6592 27.4563 31.9733 28.2146 31.9733 29.0053ZM35.504 14.752C33.7093 14.752 31.3613 16.032 28.9867 18.248C26.6133 16.044 24.264 14.7786 22.4707 14.7786C21.924 14.7786 21.4267 14.9026 20.996 15.1493C19.1627 16.2066 18.752 19.5013 19.6987 23.636C15.64 24.8893 13 26.8933 13 29.0053C13 31.1253 15.6533 33.1346 19.724 34.3786C18.7853 38.5293 19.204 41.8293 21.0413 42.8853C21.468 43.1346 21.9613 43.252 22.5107 43.252C24.304 43.252 26.6533 41.972 29.028 39.7533C31.4013 41.9586 33.7507 43.224 35.544 43.224C36.0907 43.224 36.588 43.104 37.0187 42.8573C38.8507 41.8013 39.2627 38.5066 38.316 34.3706C42.36 33.128 45 31.12 45 29.0053C45 26.8853 42.3467 24.876 38.276 23.6293C39.2147 19.4826 38.796 16.18 36.9587 15.1226C36.5347 14.8773 36.0413 14.7533 35.5027 14.752H35.504ZM35.4973 16.2053V16.2133C35.7973 16.2133 36.0387 16.272 36.2413 16.3826C37.1293 16.892 37.5147 18.8293 37.2147 21.3213C37.1427 21.9346 37.0253 22.5813 36.8813 23.2413C35.6013 22.9266 34.2067 22.6853 32.7387 22.5293C31.8587 21.3226 30.9453 20.2266 30.0253 19.2666C32.148 17.2933 34.1413 16.2106 35.4987 16.2066L35.4973 16.2053ZM22.4707 16.232C23.82 16.232 25.8227 17.3093 27.9507 19.272C27.036 20.232 26.124 21.3213 25.2573 22.528C23.7813 22.684 22.3853 22.9253 21.1067 23.2453C20.9573 22.592 20.8467 21.96 20.768 21.352C20.4613 18.8613 20.84 16.9253 21.72 16.4093C21.9733 16.2893 22.2533 16.24 22.4707 16.2333V16.232ZM28.98 20.2986C29.5867 20.9226 30.1933 21.6213 30.7933 22.384C30.2067 22.3573 29.6067 22.3386 29 22.3386C28.3867 22.3386 27.78 22.352 27.1867 22.384C27.7733 21.6213 28.38 20.9226 28.98 20.2973V20.2986ZM29 23.8C29.9867 23.8 30.9693 23.8453 31.936 23.924C32.4773 24.7 33.0053 25.528 33.5133 26.404C34.0093 27.2573 34.46 28.124 34.8707 28.9986C34.46 29.872 34.0093 30.7453 33.52 31.5986C33.0133 32.4786 32.4893 33.316 31.9467 34.092C30.976 34.176 29.992 34.2226 29 34.2226C28.0133 34.2226 27.0307 34.176 26.064 34.0986C25.5227 33.3226 24.9947 32.4933 24.4867 31.6186C23.9907 30.7653 23.54 29.8986 23.1293 29.024C23.5333 28.148 23.9907 27.2733 24.48 26.4186C24.9867 25.5386 25.5107 24.704 26.0533 23.928C27.024 23.8426 28.008 23.7973 29 23.7973V23.8ZM24.1533 24.1386C23.8333 24.6413 23.5133 25.156 23.2147 25.6853C22.9147 26.2053 22.6347 26.728 22.368 27.2506C22.0147 26.376 21.7147 25.504 21.4667 24.6546C22.32 24.4546 23.22 24.2773 24.1533 24.14V24.1386ZM33.8333 24.1386C34.76 24.276 35.6533 24.4453 36.508 24.6546C36.268 25.4973 35.968 26.364 35.628 27.232C35.3613 26.712 35.0813 26.188 34.7747 25.6666C34.4747 25.144 34.1547 24.6346 33.8347 24.1386H33.8333ZM37.9173 25.0386C38.5627 25.2386 39.176 25.4613 39.7507 25.7026C42.06 26.6893 43.5533 27.98 43.5533 29.004C43.5467 30.028 42.0533 31.324 39.744 32.304C39.184 32.544 38.5707 32.76 37.9373 32.9613C37.564 31.684 37.076 30.3533 36.4707 28.988C37.0707 27.632 37.5507 26.308 37.9173 25.036V25.0386ZM20.0573 25.044C20.428 26.324 20.9173 27.6533 21.524 29.0173C20.924 30.3733 20.4413 31.6973 20.076 32.9693C19.4307 32.7693 18.8173 32.5453 18.2493 32.3026C15.94 31.32 14.4467 30.028 14.4467 29.004C14.4467 27.98 15.94 26.6813 18.2493 25.7026C18.8093 25.4626 19.4227 25.2466 20.0573 25.044ZM35.628 30.7506C35.9813 31.6266 36.2813 32.5 36.5293 33.348C35.676 33.5573 34.7747 33.7346 33.8413 33.868C34.1613 33.368 34.4813 32.852 34.7813 32.324C35.0813 31.804 35.3613 31.2733 35.6293 30.7506H35.628ZM22.368 30.7773C22.6347 31.3 22.9147 31.8213 23.2213 32.344C23.528 32.864 23.8413 33.3733 24.1613 33.868C23.2347 33.732 22.3413 33.5613 21.4867 33.3533C21.7267 32.5133 22.028 31.644 22.3667 30.776L22.368 30.7773ZM36.8933 34.76C37.0427 35.4173 37.16 36.0506 37.232 36.6573C37.5387 39.148 37.16 41.084 36.28 41.6013C36.084 41.7213 35.8293 41.772 35.5293 41.772C34.18 41.772 32.1773 40.696 30.0493 38.732C30.964 37.772 31.876 36.684 32.7427 35.4786C34.2187 35.3213 35.6147 35.0786 36.8933 34.7586V34.76ZM21.12 34.7733C22.4 35.0853 23.7947 35.3266 25.2627 35.4826C26.1427 36.6893 27.056 37.7853 27.976 38.744C25.8493 40.7213 23.8533 41.804 22.496 41.804C22.2027 41.7973 21.9547 41.7373 21.7587 41.628C20.8707 41.1213 20.4853 39.1826 20.7853 36.6906C20.8573 36.0773 20.9747 35.432 21.1187 34.7733H21.12ZM27.2 35.6266C27.7867 35.6533 28.3867 35.672 28.9933 35.672C29.6067 35.672 30.2133 35.6586 30.8067 35.6266C30.22 36.3893 29.6133 37.0866 29.0133 37.7133C28.4067 37.0866 27.8 36.3893 27.2 35.6266Z" fill="white"/>
</svg>
