<svg width="58" height="58" viewBox="0 0 58 58" fill="none" xmlns="http://www.w3.org/2000/svg">
<circle cx="29" cy="29" r="29" fill="#ED125F"/>
<g clip-path="url(#clip0_937_72)">
<path d="M42.6036 15.3899H18.7083C16.8553 15.3899 15.6689 17.3496 16.5359 18.9788L18.9261 23.4819H14.5929C14.3187 23.482 14.049 23.5525 13.8099 23.6868C13.5712 23.8208 13.3711 24.0142 13.2291 24.2482C13.0874 24.4817 13.0088 24.748 13.0008 25.021C12.9928 25.294 13.0557 25.5645 13.1835 25.8059L20.8715 40.2832C21.0071 40.5379 21.2097 40.7508 21.458 40.8995C21.7063 41.0482 21.9903 41.1267 22.2797 41.1267C22.5692 41.1267 22.8532 41.0482 23.1015 40.8995C23.3493 40.7512 23.5521 40.5381 23.6879 40.2831L25.7759 36.3724L28.3955 41.3066C29.3173 43.042 31.8148 43.0452 32.74 41.3116L44.7171 18.8879C45.5637 17.3019 44.4085 15.3899 42.6036 15.3899ZM31.8699 24.9706L26.7055 34.6416C26.615 34.8112 26.4801 34.9529 26.3152 35.0515C26.15 35.1503 25.9611 35.2025 25.7685 35.2025C25.576 35.2025 25.3871 35.1503 25.2219 35.0515C25.057 34.9529 24.922 34.8112 24.8316 34.6416L19.7171 25.0114C19.6316 24.8509 19.5893 24.671 19.5941 24.4893C19.599 24.3076 19.6509 24.1302 19.7448 23.9746C19.8389 23.8186 19.9717 23.6895 20.1303 23.5999C20.2892 23.5101 20.4685 23.4627 20.6511 23.4622H30.9587C31.1366 23.4621 31.3116 23.508 31.4667 23.5952C31.6215 23.6823 31.7512 23.808 31.8431 23.96C31.9347 24.1117 31.9853 24.2847 31.99 24.4618C31.9947 24.639 31.9532 24.8144 31.8697 24.9707L31.8699 24.9706Z" fill="white"/>
</g>
<defs>
<clipPath id="clip0_937_72">
<rect width="32" height="32" fill="white" transform="translate(13 13)"/>
</clipPath>
</defs>
</svg>
